<svg enable-background="new 0 0 1000 1000" height="1000" viewBox="0 0 1000 1000" width="1000" xmlns="http://www.w3.org/2000/svg"><g fill="#fff"><path d="m597.8 206.3h7.2v42.3h-7.2z"/><path d="m608.1 191.9-6.7 10.3-6.7-10.3 3.2-3.2h7z"/><path d="m309.9 203.8 35.2 20.5c-1.4-26-22.9-46.7-49.3-46.7-27.3 0-49.4 22.1-49.4 49.4s22.1 49.4 49.4 49.4c8.4 0 16.3-2.1 23.2-5.8l-23.2-12.5z"/></g><path d="m345.1 227c0-.9 0-1.8-.1-2.7l-35.2-20.5-14.1 54.3 23.2 12.5c15.6-8.3 26.2-24.7 26.2-43.6z" fill="#eaeaea"/><path d="m322.8 216.7-27 41.4-27-41.4 12.9-12.9h28.2z" fill="#e14646"/><path d="m295.8 253.4-23.8-36.8 9.8-10.2-1.5 10.7z" fill="#c64040"/><path d="m308.9 206.4 10.4 10.4h-7.7z" fill="#c64040"/><g fill="#fff"><path d="m381.3 248.6h-7.2v-60h7.2z"/><path d="m391 227c0-4.1.8-7.9 2.4-11.2s3.9-5.9 6.8-7.7 6.2-2.7 9.9-2.7c5.8 0 10.4 2 14 6s5.3 9.3 5.3 15.9v.5c0 4.1-.8 7.8-2.4 11.1s-3.8 5.8-6.8 7.6c-2.9 1.8-6.3 2.7-10.1 2.7-5.7 0-10.4-2-13.9-6s-5.3-9.3-5.3-15.8v-.4zm7.2.9c0 4.7 1.1 8.5 3.3 11.3s5.1 4.3 8.7 4.3c3.7 0 6.6-1.4 8.8-4.3s3.2-6.9 3.2-12.1c0-4.6-1.1-8.4-3.3-11.3s-5.1-4.3-8.8-4.3c-3.6 0-6.4 1.4-8.6 4.3-2.2 2.7-3.3 6.8-3.3 12.1z"/><path d="m458.9 212.8c-1.1-.2-2.3-.3-3.6-.3-4.7 0-8 2-9.6 6.1v30h-7.2v-42.3h7l.1 4.9c2.4-3.8 5.7-5.7 10.1-5.7 1.4 0 2.5.2 3.2.5z"/><path d="m482.4 249.3c-5.7 0-10.4-1.9-14-5.6-3.6-3.8-5.4-8.8-5.4-15.1v-1.3c0-4.2.8-7.9 2.4-11.2s3.8-5.9 6.7-7.7c2.9-1.9 6-2.8 9.4-2.8 5.5 0 9.8 1.8 12.8 5.4s4.6 8.8 4.6 15.5v3h-28.6c.1 4.2 1.3 7.5 3.7 10.1 2.3 2.6 5.3 3.8 8.9 3.8 2.6 0 4.7-.5 6.5-1.6 1.8-1 3.3-2.4 4.6-4.1l4.4 3.4c-3.6 5.5-8.9 8.2-16 8.2zm-.9-37.9c-2.9 0-5.4 1.1-7.3 3.2-2 2.1-3.2 5.1-3.7 8.9h21.2v-.5c-.2-3.7-1.2-6.5-3-8.5s-4.2-3.1-7.2-3.1z"/><path d="m514 206.3.2 4.7c3.1-3.6 7.3-5.5 12.5-5.5 5.9 0 9.9 2.3 12.1 6.8 1.4-2 3.2-3.7 5.5-4.9 2.3-1.3 4.9-1.9 8-1.9 9.3 0 14 4.9 14.1 14.7v28.3h-7.2v-27.9c0-3-.7-5.3-2.1-6.8s-3.7-2.2-7-2.2c-2.7 0-4.9.8-6.7 2.4s-2.8 3.8-3.1 6.5v28h-7.3v-27.7c0-6.1-3-9.2-9-9.2-4.7 0-8 2-9.7 6.1v30.9h-7.2v-42.3z"/><path d="m652.3 227.9c0 6.4-1.5 11.6-4.4 15.5s-6.9 5.9-12 5.9-9.2-1.6-12.1-4.9v20.4h-7.2v-58.5h6.6l.4 4.7c2.9-3.6 7-5.5 12.3-5.5 5.1 0 9.1 1.9 12.1 5.7s4.4 9.2 4.4 16v.7zm-7.3-.8c0-4.8-1-8.5-3-11.3s-4.8-4.1-8.4-4.1c-4.4 0-7.7 1.9-9.8 5.8v20.2c2.2 3.9 5.5 5.8 9.9 5.8 3.5 0 6.2-1.4 8.3-4.1 2-2.8 3-6.9 3-12.3z"/><path d="m686 237.3c0-2-.7-3.5-2.2-4.6s-4-2-7.7-2.8-6.6-1.7-8.7-2.8-3.7-2.4-4.8-3.9c-1-1.5-1.5-3.3-1.5-5.4 0-3.5 1.5-6.4 4.4-8.8s6.7-3.6 11.2-3.6c4.8 0 8.7 1.2 11.7 3.7s4.5 5.6 4.5 9.5h-7.3c0-2-.8-3.7-2.5-5.1s-3.8-2.1-6.3-2.1c-2.6 0-4.7.6-6.2 1.7s-2.2 2.6-2.2 4.5c0 1.7.7 3.1 2.1 3.9 1.4.9 3.9 1.7 7.5 2.5s6.5 1.8 8.8 2.9c2.2 1.1 3.9 2.5 5 4 1.1 1.6 1.6 3.5 1.6 5.8 0 3.8-1.5 6.8-4.5 9.1s-6.9 3.4-11.8 3.4c-3.4 0-6.4-.6-9-1.8s-4.6-2.9-6.1-5-2.2-4.5-2.2-7h7.2c.1 2.4 1.1 4.3 2.9 5.8 1.8 1.4 4.2 2.1 7.2 2.1 2.7 0 4.9-.6 6.6-1.7 1.5-.9 2.3-2.4 2.3-4.3z"/><path d="m728.8 244.4c-2.8 3.3-6.9 5-12.4 5-4.5 0-7.9-1.3-10.3-3.9s-3.5-6.5-3.6-11.6v-27.5h7.2v27.3c0 6.4 2.6 9.6 7.8 9.6 5.5 0 9.2-2.1 11-6.2v-30.7h7.2v42.3h-6.9z"/><path d="m753.6 206.3.2 4.7c3.1-3.6 7.3-5.5 12.5-5.5 5.9 0 9.9 2.3 12.1 6.8 1.4-2 3.2-3.7 5.5-4.9 2.3-1.3 4.9-1.9 8-1.9 9.3 0 14 4.9 14.1 14.7v28.3h-7.2v-27.9c0-3-.7-5.3-2.1-6.8s-3.7-2.2-7-2.2c-2.7 0-4.9.8-6.7 2.4s-2.8 3.8-3.1 6.5v28h-7.3v-27.7c0-6.1-3-9.2-9-9.2-4.7 0-8 2-9.7 6.1v30.9h-7.2v-42.3z"/></g></svg>